<mxfile host="app.diagrams.net" modified="2023-05-04T15:41:29.066Z" agent="Mozilla/5.0 (Windows NT 10.0; Win64; x64; rv:109.0) Gecko/20100101 Firefox/112.0" etag="H3AP-_K5awFA0YcGN_iQ" version="21.2.8" type="google" pages="2">
  <diagram name="Pagina-1" id="nNnIefdH29HKSRN81F_e">
    <mxGraphModel grid="1" page="1" gridSize="2" guides="1" tooltips="1" connect="1" arrows="1" fold="1" pageScale="1" pageWidth="2500" pageHeight="900" math="0" shadow="0">
      <root>
        <mxCell id="0" />
        <mxCell id="1" parent="0" />
        <mxCell id="hu5yYnxfXPEdt88EyCQ2-11" value="" style="shape=cube;whiteSpace=wrap;html=1;boundedLbl=1;backgroundOutline=1;darkOpacity=0.05;darkOpacity2=0.1;size=278;direction=east;fillColor=none;opacity=80;strokeColor=#000000;" vertex="1" parent="1">
          <mxGeometry x="63" y="420" width="714" height="338" as="geometry" />
        </mxCell>
        <mxCell id="hu5yYnxfXPEdt88EyCQ2-39" value="" style="group" connectable="0" vertex="1" parent="1">
          <mxGeometry x="384" y="542" width="72" height="44" as="geometry" />
        </mxCell>
        <mxCell id="hu5yYnxfXPEdt88EyCQ2-36" value="" style="group" connectable="0" vertex="1" parent="hu5yYnxfXPEdt88EyCQ2-39">
          <mxGeometry width="72" height="44" as="geometry" />
        </mxCell>
        <mxCell id="hu5yYnxfXPEdt88EyCQ2-37" value="" style="ellipse;whiteSpace=wrap;html=1;fillColor=#FFEEED;" vertex="1" parent="hu5yYnxfXPEdt88EyCQ2-36">
          <mxGeometry width="72" height="44" as="geometry" />
        </mxCell>
        <mxCell id="hu5yYnxfXPEdt88EyCQ2-38" value="" style="ellipse;whiteSpace=wrap;html=1;aspect=fixed;fillColor=#EA8985;" vertex="1" parent="hu5yYnxfXPEdt88EyCQ2-36">
          <mxGeometry x="34" y="18" width="20" height="20" as="geometry" />
        </mxCell>
        <mxCell id="hu5yYnxfXPEdt88EyCQ2-34" value="" style="group" connectable="0" vertex="1" parent="1">
          <mxGeometry x="282" y="532" width="72" height="44" as="geometry" />
        </mxCell>
        <mxCell id="hu5yYnxfXPEdt88EyCQ2-31" value="" style="group" connectable="0" vertex="1" parent="hu5yYnxfXPEdt88EyCQ2-34">
          <mxGeometry width="72" height="44" as="geometry" />
        </mxCell>
        <mxCell id="hu5yYnxfXPEdt88EyCQ2-32" value="" style="ellipse;whiteSpace=wrap;html=1;fillColor=#FFEEED;" vertex="1" parent="hu5yYnxfXPEdt88EyCQ2-31">
          <mxGeometry width="72" height="44" as="geometry" />
        </mxCell>
        <mxCell id="hu5yYnxfXPEdt88EyCQ2-33" value="" style="ellipse;whiteSpace=wrap;html=1;aspect=fixed;fillColor=#EA8985;" vertex="1" parent="hu5yYnxfXPEdt88EyCQ2-31">
          <mxGeometry x="26" y="20" width="20" height="20" as="geometry" />
        </mxCell>
        <mxCell id="hu5yYnxfXPEdt88EyCQ2-30" value="" style="group" connectable="0" vertex="1" parent="1">
          <mxGeometry x="380" y="586" width="72" height="44" as="geometry" />
        </mxCell>
        <mxCell id="hu5yYnxfXPEdt88EyCQ2-26" value="" style="group" connectable="0" vertex="1" parent="hu5yYnxfXPEdt88EyCQ2-30">
          <mxGeometry width="72" height="44" as="geometry" />
        </mxCell>
        <mxCell id="hu5yYnxfXPEdt88EyCQ2-27" value="" style="ellipse;whiteSpace=wrap;html=1;fillColor=#FFEEED;" vertex="1" parent="hu5yYnxfXPEdt88EyCQ2-26">
          <mxGeometry width="72" height="44" as="geometry" />
        </mxCell>
        <mxCell id="hu5yYnxfXPEdt88EyCQ2-28" value="" style="ellipse;whiteSpace=wrap;html=1;aspect=fixed;fillColor=#EA8985;" vertex="1" parent="hu5yYnxfXPEdt88EyCQ2-30">
          <mxGeometry x="8" y="10" width="20" height="20" as="geometry" />
        </mxCell>
        <mxCell id="hu5yYnxfXPEdt88EyCQ2-25" value="" style="group" connectable="0" vertex="1" parent="1">
          <mxGeometry x="328" y="564" width="72" height="44" as="geometry" />
        </mxCell>
        <mxCell id="hu5yYnxfXPEdt88EyCQ2-22" value="" style="group" connectable="0" vertex="1" parent="hu5yYnxfXPEdt88EyCQ2-25">
          <mxGeometry width="72" height="44" as="geometry" />
        </mxCell>
        <mxCell id="hu5yYnxfXPEdt88EyCQ2-23" value="" style="ellipse;whiteSpace=wrap;html=1;fillColor=#FFEEED;" vertex="1" parent="hu5yYnxfXPEdt88EyCQ2-22">
          <mxGeometry width="72" height="44" as="geometry" />
        </mxCell>
        <mxCell id="hu5yYnxfXPEdt88EyCQ2-24" value="" style="ellipse;whiteSpace=wrap;html=1;aspect=fixed;fillColor=#EA8985;" vertex="1" parent="hu5yYnxfXPEdt88EyCQ2-25">
          <mxGeometry x="28" y="14" width="20" height="20" as="geometry" />
        </mxCell>
        <mxCell id="hu5yYnxfXPEdt88EyCQ2-21" value="" style="group" connectable="0" vertex="1" parent="1">
          <mxGeometry x="326" y="600" width="72" height="44" as="geometry" />
        </mxCell>
        <mxCell id="hu5yYnxfXPEdt88EyCQ2-18" value="" style="group" connectable="0" vertex="1" parent="hu5yYnxfXPEdt88EyCQ2-21">
          <mxGeometry width="72" height="44" as="geometry" />
        </mxCell>
        <mxCell id="hu5yYnxfXPEdt88EyCQ2-19" value="" style="ellipse;whiteSpace=wrap;html=1;fillColor=#FFEEED;" vertex="1" parent="hu5yYnxfXPEdt88EyCQ2-18">
          <mxGeometry width="72" height="44" as="geometry" />
        </mxCell>
        <mxCell id="hu5yYnxfXPEdt88EyCQ2-20" value="" style="ellipse;whiteSpace=wrap;html=1;aspect=fixed;fillColor=#EA8985;" vertex="1" parent="hu5yYnxfXPEdt88EyCQ2-18">
          <mxGeometry x="22" y="18" width="20" height="20" as="geometry" />
        </mxCell>
        <mxCell id="hu5yYnxfXPEdt88EyCQ2-14" value="" style="group" connectable="0" vertex="1" parent="1">
          <mxGeometry x="270" y="576" width="72" height="44" as="geometry" />
        </mxCell>
        <mxCell id="hu5yYnxfXPEdt88EyCQ2-13" value="" style="ellipse;whiteSpace=wrap;html=1;fillColor=#FFEEED;strokeColor=#000000;" vertex="1" parent="hu5yYnxfXPEdt88EyCQ2-14">
          <mxGeometry width="72" height="44" as="geometry" />
        </mxCell>
        <mxCell id="hu5yYnxfXPEdt88EyCQ2-9" value="" style="rounded=0;whiteSpace=wrap;html=1;" vertex="1" parent="1">
          <mxGeometry x="2015" y="222.06" width="420" height="537.94" as="geometry" />
        </mxCell>
        <mxCell id="hu5yYnxfXPEdt88EyCQ2-2" value="" style="shape=cube;whiteSpace=wrap;html=1;boundedLbl=1;backgroundOutline=1;darkOpacity=0.05;darkOpacity2=0.1;size=50;direction=east;fillColor=#D3EBF0;opacity=60;rotation=-210;strokeColor=#000000;" vertex="1" parent="1">
          <mxGeometry x="965" y="224.06" width="202" height="52" as="geometry" />
        </mxCell>
        <mxCell id="PGQ6HJyxgd6gYxSsFXWB-1" value="" style="shape=cube;whiteSpace=wrap;html=1;boundedLbl=1;backgroundOutline=1;darkOpacity=0.05;darkOpacity2=0.1;size=314;direction=east;fillColor=#EDFFEE;opacity=80;strokeColor=#000000;" vertex="1" parent="1">
          <mxGeometry x="62" y="300" width="714" height="338" as="geometry" />
        </mxCell>
        <mxCell id="PGQ6HJyxgd6gYxSsFXWB-15" value="" style="group" connectable="0" vertex="1" parent="1">
          <mxGeometry x="290" y="552" width="204" height="140" as="geometry" />
        </mxCell>
        <mxCell id="PGQ6HJyxgd6gYxSsFXWB-7" value="" style="group;strokeWidth=3;perimeterSpacing=2;rounded=0;" connectable="0" vertex="1" parent="PGQ6HJyxgd6gYxSsFXWB-15">
          <mxGeometry width="204" height="140" as="geometry" />
        </mxCell>
        <mxCell id="hu5yYnxfXPEdt88EyCQ2-12" value="" style="ellipse;whiteSpace=wrap;html=1;aspect=fixed;fillColor=#EA8985;" vertex="1" parent="PGQ6HJyxgd6gYxSsFXWB-7">
          <mxGeometry x="-12" y="34" width="20" height="20" as="geometry" />
        </mxCell>
        <mxCell id="hu5yYnxfXPEdt88EyCQ2-10" value="" style="group" connectable="0" vertex="1" parent="PGQ6HJyxgd6gYxSsFXWB-7">
          <mxGeometry x="-34" y="-148" width="238" height="288" as="geometry" />
        </mxCell>
        <mxCell id="PGQ6HJyxgd6gYxSsFXWB-14" value="" style="ellipse;whiteSpace=wrap;html=1;aspect=fixed;strokeColor=#707070;fillColor=#A3FFA9;strokeWidth=1;" vertex="1" parent="hu5yYnxfXPEdt88EyCQ2-10">
          <mxGeometry x="37" y="194" width="10" height="10" as="geometry" />
        </mxCell>
        <mxCell id="PGQ6HJyxgd6gYxSsFXWB-3" value="" style="endArrow=classic;html=1;rounded=0;endSize=3;startSize=5;strokeWidth=2;strokeColor=#000000;" edge="1" parent="hu5yYnxfXPEdt88EyCQ2-10">
          <mxGeometry width="50" height="50" relative="1" as="geometry">
            <mxPoint x="42" y="200" as="sourcePoint" />
            <mxPoint x="162" y="28" as="targetPoint" />
          </mxGeometry>
        </mxCell>
        <mxCell id="PGQ6HJyxgd6gYxSsFXWB-6" value="" style="endArrow=classic;html=1;rounded=0;endSize=3;startSize=5;strokeWidth=2;strokeColor=#000000;" edge="1" parent="hu5yYnxfXPEdt88EyCQ2-10">
          <mxGeometry width="50" height="50" relative="1" as="geometry">
            <mxPoint x="42" y="200" as="sourcePoint" />
            <mxPoint x="118" as="targetPoint" />
          </mxGeometry>
        </mxCell>
        <mxCell id="PGQ6HJyxgd6gYxSsFXWB-5" value="" style="endArrow=classic;html=1;rounded=0;endSize=3;startSize=5;strokeWidth=2;strokeColor=#000000;" edge="1" parent="hu5yYnxfXPEdt88EyCQ2-10">
          <mxGeometry width="50" height="50" relative="1" as="geometry">
            <mxPoint x="42" y="200" as="sourcePoint" />
            <mxPoint x="48" y="78" as="targetPoint" />
          </mxGeometry>
        </mxCell>
        <mxCell id="PGQ6HJyxgd6gYxSsFXWB-4" value="" style="endArrow=classic;html=1;rounded=0;endSize=3;startSize=5;strokeWidth=2;strokeColor=#000000;" edge="1" parent="hu5yYnxfXPEdt88EyCQ2-10">
          <mxGeometry width="50" height="50" relative="1" as="geometry">
            <mxPoint x="42" y="200" as="sourcePoint" />
            <mxPoint y="44" as="targetPoint" />
          </mxGeometry>
        </mxCell>
        <mxCell id="ZSS9ueLAfO0uXjyZf8Uv-12" value="&lt;font style=&quot;font-size: 41px;&quot;&gt;Î²&lt;/font&gt;" style="text;html=1;align=center;verticalAlign=middle;resizable=0;points=[];autosize=1;strokeColor=none;fillColor=none;" vertex="1" parent="hu5yYnxfXPEdt88EyCQ2-10">
          <mxGeometry x="112" y="88" width="44" height="62" as="geometry" />
        </mxCell>
        <mxCell id="PGQ6HJyxgd6gYxSsFXWB-26" value="" style="group" connectable="0" vertex="1" parent="1">
          <mxGeometry x="1061" y="252" width="506" height="452" as="geometry" />
        </mxCell>
        <mxCell id="PGQ6HJyxgd6gYxSsFXWB-24" value="" style="group" connectable="0" vertex="1" parent="PGQ6HJyxgd6gYxSsFXWB-26">
          <mxGeometry width="506" height="452" as="geometry" />
        </mxCell>
        <mxCell id="PGQ6HJyxgd6gYxSsFXWB-19" value="" style="shape=cube;whiteSpace=wrap;html=1;boundedLbl=1;backgroundOutline=1;darkOpacity=0.05;darkOpacity2=0.1;size=268;direction=east;fillColor=#EDFFEE;opacity=80;strokeColor=#000000;" vertex="1" parent="PGQ6HJyxgd6gYxSsFXWB-24">
          <mxGeometry x="-96" y="158" width="602" height="294" as="geometry" />
        </mxCell>
        <mxCell id="PGQ6HJyxgd6gYxSsFXWB-21" value="" style="endArrow=none;html=1;rounded=0;strokeWidth=2;strokeColor=#FF0000;" edge="1" parent="PGQ6HJyxgd6gYxSsFXWB-24">
          <mxGeometry width="50" height="50" relative="1" as="geometry">
            <mxPoint as="sourcePoint" />
            <mxPoint x="155.55555555555554" y="343.5319727891157" as="targetPoint" />
          </mxGeometry>
        </mxCell>
        <mxCell id="PGQ6HJyxgd6gYxSsFXWB-22" value="" style="endArrow=none;html=1;rounded=0;strokeWidth=2;strokeColor=#FF0000;" edge="1" parent="PGQ6HJyxgd6gYxSsFXWB-24">
          <mxGeometry width="50" height="50" relative="1" as="geometry">
            <mxPoint as="sourcePoint" />
            <mxPoint x="157.77777777777777" y="294.8571428571429" as="targetPoint" />
          </mxGeometry>
        </mxCell>
        <mxCell id="PGQ6HJyxgd6gYxSsFXWB-23" value="" style="endArrow=none;html=1;rounded=0;strokeWidth=2;strokeColor=#FF0000;" edge="1" parent="PGQ6HJyxgd6gYxSsFXWB-24">
          <mxGeometry width="50" height="50" relative="1" as="geometry">
            <mxPoint as="sourcePoint" />
            <mxPoint x="160" y="252.73469387755102" as="targetPoint" />
          </mxGeometry>
        </mxCell>
        <mxCell id="PGQ6HJyxgd6gYxSsFXWB-25" value="" style="endArrow=none;html=1;rounded=0;strokeWidth=2;strokeColor=#FF0000;" edge="1" parent="PGQ6HJyxgd6gYxSsFXWB-26">
          <mxGeometry width="50" height="50" relative="1" as="geometry">
            <mxPoint x="155.55555555555554" y="343.99999999999994" as="sourcePoint" />
            <mxPoint x="160" y="250.39455782312925" as="targetPoint" />
          </mxGeometry>
        </mxCell>
        <mxCell id="PGQ6HJyxgd6gYxSsFXWB-33" value="" style="endArrow=none;html=1;rounded=0;strokeWidth=2;entryX=1;entryY=0.5;entryDx=0;entryDy=0;strokeColor=#FF0000;" edge="1" parent="1">
          <mxGeometry width="50" height="50" relative="1" as="geometry">
            <mxPoint x="1060" y="252" as="sourcePoint" />
            <mxPoint x="1439" y="252.05999999999995" as="targetPoint" />
          </mxGeometry>
        </mxCell>
        <mxCell id="nSoLlbci4BOyVn5Xgzns-12" value="" style="endArrow=none;html=1;rounded=0;strokeWidth=2;strokeColor=#0000CC;" edge="1" parent="1">
          <mxGeometry width="50" height="50" relative="1" as="geometry">
            <mxPoint x="1221" y="504" as="sourcePoint" />
            <mxPoint x="1520" y="398" as="targetPoint" />
          </mxGeometry>
        </mxCell>
        <mxCell id="nSoLlbci4BOyVn5Xgzns-13" value="" style="endArrow=none;html=1;rounded=0;strokeWidth=2;strokeColor=#0000CC;" edge="1" parent="1">
          <mxGeometry width="50" height="50" relative="1" as="geometry">
            <mxPoint x="1217" y="594" as="sourcePoint" />
            <mxPoint x="1521" y="398" as="targetPoint" />
          </mxGeometry>
        </mxCell>
        <mxCell id="ZSS9ueLAfO0uXjyZf8Uv-11" value="&lt;font style=&quot;font-size: 40px;&quot;&gt;Phosphor screen&lt;br&gt;&lt;/font&gt;" style="text;html=1;align=center;verticalAlign=middle;resizable=0;points=[];autosize=1;strokeColor=none;fillColor=none;" vertex="1" parent="1">
          <mxGeometry x="210" y="219.06" width="322" height="62" as="geometry" />
        </mxCell>
        <mxCell id="ZSS9ueLAfO0uXjyZf8Uv-13" value="&lt;font style=&quot;font-size: 40px;&quot;&gt;Mirror&lt;br&gt;&lt;/font&gt;" style="text;html=1;align=center;verticalAlign=middle;resizable=0;points=[];autosize=1;strokeColor=none;fillColor=none;" vertex="1" parent="1">
          <mxGeometry x="912" y="181" width="124" height="62" as="geometry" />
        </mxCell>
        <mxCell id="ZSS9ueLAfO0uXjyZf8Uv-14" value="&lt;font style=&quot;font-size: 40px;&quot;&gt;Laser&lt;br&gt;&lt;/font&gt;" style="text;html=1;align=center;verticalAlign=middle;resizable=0;points=[];autosize=1;strokeColor=none;fillColor=none;" vertex="1" parent="1">
          <mxGeometry x="1481" y="131" width="120" height="62" as="geometry" />
        </mxCell>
        <mxCell id="ZSS9ueLAfO0uXjyZf8Uv-15" value="&lt;font style=&quot;font-size: 40px;&quot;&gt;CCD&lt;br&gt;&lt;/font&gt;" style="text;html=1;align=center;verticalAlign=middle;resizable=0;points=[];autosize=1;strokeColor=none;fillColor=none;" vertex="1" parent="1">
          <mxGeometry x="1556" y="451" width="106" height="62" as="geometry" />
        </mxCell>
        <mxCell id="ZSS9ueLAfO0uXjyZf8Uv-18" value="" style="shape=flexArrow;endArrow=classic;html=1;rounded=0;endWidth=31.25;endSize=26.175;width=72.5;fillColor=#FFE3A1;strokeColor=#000000;" edge="1" parent="1">
          <mxGeometry width="50" height="50" relative="1" as="geometry">
            <mxPoint x="743" y="479" as="sourcePoint" />
            <mxPoint x="907" y="479" as="targetPoint" />
          </mxGeometry>
        </mxCell>
        <mxCell id="ZSS9ueLAfO0uXjyZf8Uv-19" value="" style="shape=flexArrow;endArrow=classic;html=1;rounded=0;endWidth=31.25;endSize=26.175;width=72.5;fillColor=#FFE3A1;strokeColor=#000000;" edge="1" parent="1">
          <mxGeometry width="50" height="50" relative="1" as="geometry">
            <mxPoint x="1765" y="481" as="sourcePoint" />
            <mxPoint x="1929" y="481" as="targetPoint" />
          </mxGeometry>
        </mxCell>
        <mxCell id="go0w3vx1c22MQb_H4SIl-4" value="" style="group" connectable="0" vertex="1" parent="1">
          <mxGeometry x="1523" y="349" width="162" height="102" as="geometry" />
        </mxCell>
        <mxCell id="go0w3vx1c22MQb_H4SIl-3" value="" style="shape=cube;whiteSpace=wrap;html=1;boundedLbl=1;backgroundOutline=1;darkOpacity=0.05;darkOpacity2=0.1;size=6;rotation=-180;fillColor=#f5f5f5;fontColor=#333333;strokeColor=#000000;" vertex="1" parent="go0w3vx1c22MQb_H4SIl-4">
          <mxGeometry width="50" height="102" as="geometry" />
        </mxCell>
        <mxCell id="go0w3vx1c22MQb_H4SIl-1" value="" style="shape=cube;whiteSpace=wrap;html=1;boundedLbl=1;backgroundOutline=1;darkOpacity=0.05;darkOpacity2=0.1;size=6;rotation=-180;fillColor=#f5f5f5;fontColor=#333333;strokeColor=#000000;" vertex="1" parent="go0w3vx1c22MQb_H4SIl-4">
          <mxGeometry x="44" y="11" width="120" height="80" as="geometry" />
        </mxCell>
        <mxCell id="go0w3vx1c22MQb_H4SIl-13" value="" style="group" connectable="0" vertex="1" parent="1">
          <mxGeometry x="1440" y="201.06" width="218" height="102" as="geometry" />
        </mxCell>
        <mxCell id="go0w3vx1c22MQb_H4SIl-12" value="" style="verticalLabelPosition=bottom;verticalAlign=top;html=1;shape=mxgraph.basic.pyramid;dx1=0.49;dx2=0.02;dy1=0.91;dy2=0.98;rotation=-90;fillColor=#DBDBDB;" vertex="1" parent="go0w3vx1c22MQb_H4SIl-13">
          <mxGeometry x="-4" y="20" width="70" height="62" as="geometry" />
        </mxCell>
        <mxCell id="go0w3vx1c22MQb_H4SIl-11" value="" style="group" connectable="0" vertex="1" parent="go0w3vx1c22MQb_H4SIl-13">
          <mxGeometry x="54" width="164" height="102" as="geometry" />
        </mxCell>
        <mxCell id="go0w3vx1c22MQb_H4SIl-7" value="" style="shape=cube;whiteSpace=wrap;html=1;boundedLbl=1;backgroundOutline=1;darkOpacity=0.05;darkOpacity2=0.1;size=6;rotation=-180;fillColor=#DBDBDB;fontColor=#333333;strokeColor=#000000;" vertex="1" parent="go0w3vx1c22MQb_H4SIl-11">
          <mxGeometry x="7.105427357601002e-15" width="50" height="102" as="geometry" />
        </mxCell>
        <mxCell id="go0w3vx1c22MQb_H4SIl-8" value="" style="shape=cube;whiteSpace=wrap;html=1;boundedLbl=1;backgroundOutline=1;darkOpacity=0.05;darkOpacity2=0.1;size=6;rotation=-180;fillColor=#DBDBDB;fontColor=#333333;strokeColor=#000000;" vertex="1" parent="go0w3vx1c22MQb_H4SIl-11">
          <mxGeometry x="44.00000000000001" y="11" width="120" height="80" as="geometry" />
        </mxCell>
        <mxCell id="go0w3vx1c22MQb_H4SIl-10" value="" style="rounded=0;whiteSpace=wrap;html=1;fillColor=#DBDBDB;" vertex="1" parent="go0w3vx1c22MQb_H4SIl-11">
          <mxGeometry x="44.00000000000001" y="18" width="26" height="60" as="geometry" />
        </mxCell>
        <mxCell id="hu5yYnxfXPEdt88EyCQ2-5" value="&lt;font style=&quot;font-size: 40px;&quot;&gt;Digital image&lt;br&gt;&lt;/font&gt;" style="text;html=1;align=center;verticalAlign=middle;resizable=0;points=[];autosize=1;strokeColor=none;fillColor=none;" vertex="1" parent="1">
          <mxGeometry x="2094" y="155" width="250" height="62" as="geometry" />
        </mxCell>
        <mxCell id="hu5yYnxfXPEdt88EyCQ2-6" value="" style="group" connectable="0" vertex="1" parent="1">
          <mxGeometry x="2109" y="534" width="74" height="74" as="geometry" />
        </mxCell>
        <mxCell id="ZSS9ueLAfO0uXjyZf8Uv-3" value="" style="ellipse;whiteSpace=wrap;html=1;aspect=fixed;strokeColor=none;fillColor=#E6E6E6;" vertex="1" parent="hu5yYnxfXPEdt88EyCQ2-6">
          <mxGeometry width="74" height="74" as="geometry" />
        </mxCell>
        <mxCell id="ZSS9ueLAfO0uXjyZf8Uv-2" value="" style="ellipse;whiteSpace=wrap;html=1;aspect=fixed;strokeColor=none;fillColor=#999999;" vertex="1" parent="hu5yYnxfXPEdt88EyCQ2-6">
          <mxGeometry x="12" y="12" width="50" height="50" as="geometry" />
        </mxCell>
        <mxCell id="ZSS9ueLAfO0uXjyZf8Uv-1" value="" style="ellipse;whiteSpace=wrap;html=1;aspect=fixed;fillColor=#4D4D4D;strokeColor=none;" vertex="1" parent="hu5yYnxfXPEdt88EyCQ2-6">
          <mxGeometry x="26" y="26" width="22" height="22" as="geometry" />
        </mxCell>
      </root>
    </mxGraphModel>
  </diagram>
  <diagram id="FYbj31Kx0I_Y3izuVjlc" name="Pagina-2">
    <mxGraphModel grid="1" page="1" gridSize="10" guides="1" tooltips="1" connect="1" arrows="1" fold="1" pageScale="1" pageWidth="2500" pageHeight="900" math="0" shadow="0">
      <root>
        <mxCell id="0" />
        <mxCell id="1" parent="0" />
      </root>
    </mxGraphModel>
  </diagram>
</mxfile>
